# xmcd
#
# Track frame offsets:
#	150
#	17344
#	35048
#	56650
#	78532
#	97738
#	120538
#	142245
#	163506
#	184995
#
# Disc length: 2990 seconds
#
# Revision: 2
# Processed by: cddbd v1.5.2PL0 Copyright (c) Steve Scherf et al.
# Submitted via: EZCDAudioConverter 8.0.2.1
#
DISCID=800bac0a
DTITLE=Various Artist - Tình Cha
DYEAR=2003
DGENRE=Traditional American
TTITLE0=Philip Huy - Papa
TTITLE1=Thiên Kim - Người cha
TTITLE2=Lâm Thúy Vân - Cha yêu
TTITLE3=Trường Vũ - Thư xuân ba viết cho con
TTITLE4=Hợp Ca Asia  - Tạ ơn Cha Mẹ
TTITLE5=Hoàng Nam - Lời cha
TTITLE6=Thanh Tuyền - Tám điệp khúc
TTITLE7=Hợp Ca Thiếu Nhi - Ơn nghĩa sinh thành
TTITLE8=Mạnh Đình, Diệp Thanh Thanh - Tía em má em
TTITLE9=Tấn Thanh, Xuân Mỹ - Công ơn cha mẹ
EXTD=
EXTT0=
EXTT1=
EXTT2=
EXTT3=
EXTT4=
EXTT5=
EXTT6=
EXTT7=
EXTT8=
EXTT9=
PLAYORDER=
